<?xml version="1.0" standalone="no"?>
<!DOCTYPE svg PUBLIC "-//W3C//DTD SVG 20010904//EN"
 "http://www.w3.org/TR/2001/REC-SVG-20010904/DTD/svg10.dtd">
<svg version="1.0" xmlns="http://www.w3.org/2000/svg"
 width="746.000000pt" height="1205.000000pt" viewBox="0 0 746.000000 1205.000000"
 preserveAspectRatio="xMidYMid meet">
<metadata>
Created by potrace 1.16, written by Peter Selinger 2001-2019
</metadata>
<g transform="translate(0.000000,1205.000000) scale(0.100000,-0.100000)"
fill="#000" stroke="none">
<path d="M1465 11761 l-281 -139 -69 -91 -70 -92 -202 -125 c-164 -102 -220
-131 -305 -160 l-105 -35 -62 -163 c-62 -162 -63 -164 -142 -249 l-79 -85 0
-169 c0 -161 1 -170 25 -208 35 -58 36 -149 0 -177 l-25 -19 0 -197 c0 -328
43 -966 95 -1412 25 -217 48 -405 51 -418 4 -22 8 -23 81 -20 l77 3 33 148 32
148 72 92 c40 51 118 138 173 195 l101 102 87 0 c87 0 90 1 198 55 l110 55
290 0 290 0 0 -38 c0 -31 7 -45 40 -77 22 -21 40 -44 40 -50 0 -5 -48 -64
-105 -130 -157 -180 -149 -148 -71 -265 l66 -100 189 0 190 0 21 -30 22 -31
-56 -63 c-37 -42 -56 -73 -56 -89 0 -20 -15 -37 -62 -73 -35 -26 -89 -72 -121
-101 -32 -29 -68 -55 -80 -58 -129 -28 -268 -45 -370 -45 -105 0 -131 -4 -240
-35 l-121 -35 -348 0 c-322 0 -347 -1 -352 -17 -2 -10 -17 -79 -32 -153 -25
-127 -26 -141 -16 -250 14 -143 25 -183 64 -223 17 -18 47 -57 68 -87 50 -73
206 -341 224 -383 21 -51 72 -71 155 -63 36 4 94 13 129 20 l62 14 0 -52 c0
-50 -2 -52 -55 -96 -85 -70 -185 -99 -347 -100 l-128 0 0 -84 c0 -113 40 -299
86 -395 38 -82 74 -144 174 -301 37 -58 102 -165 146 -238 74 -126 82 -137
154 -187 41 -29 118 -90 170 -135 52 -46 145 -115 205 -155 61 -40 124 -90
140 -111 119 -152 254 -338 249 -345 -3 -5 -36 -9 -74 -9 -185 0 -508 -69
-781 -168 l-186 -67 -147 -140 -148 -141 20 -104 c33 -165 42 -242 42 -342
l-1 -93 -32 -20 c-82 -51 -97 -176 -50 -408 l26 -132 -17 -170 c-14 -128 -17
-232 -14 -420 3 -236 4 -253 26 -296 15 -31 20 -55 16 -75 -8 -41 12 -112 36
-127 26 -16 26 -23 -13 -158 l-33 -116 75 -551 76 -552 806 0 806 0 6 63 c3
34 13 170 23 302 17 234 17 244 -2 390 -18 144 -18 156 -2 300 22 202 21 361
-5 671 l-22 260 -80 88 -80 88 -95 -6 c-52 -3 -106 -6 -118 -8 -21 -3 -26 4
-43 57 -10 33 -19 61 -19 63 0 1 33 2 73 2 l72 0 86 87 c47 49 148 157 223
241 l138 152 -11 51 c-6 27 -11 53 -11 57 0 4 48 -89 106 -207 l105 -214 29
-156 c18 -90 30 -190 30 -236 l0 -80 71 -71 72 -72 23 -104 c15 -69 23 -136
24 -203 l0 -100 108 -180 c87 -143 112 -179 128 -177 10 2 43 10 72 18 l52 15
0 193 c0 170 -3 209 -25 311 -28 129 -50 179 -135 305 -95 142 -100 155 -100
271 0 83 -5 114 -26 175 -20 54 -24 77 -16 87 15 18 102 80 102 72 0 -7 -57
-115 -71 -135 -9 -12 -3 -29 25 -78 21 -34 40 -62 44 -62 10 0 183 48 187 52
15 16 70 187 90 283 14 65 27 120 28 121 1 1 49 -8 107 -20 l105 -23 125 33
c69 18 178 55 243 83 l119 51 221 0 220 0 116 67 c112 66 171 96 177 91 1 -2
-9 -30 -22 -63 -14 -33 -32 -91 -40 -129 -8 -39 -28 -116 -44 -172 -28 -94
-30 -115 -30 -255 l0 -154 75 -43 c72 -42 75 -45 75 -81 0 -20 -16 -84 -35
-142 -25 -74 -41 -150 -56 -264 -18 -130 -29 -178 -60 -260 -30 -76 -46 -143
-69 -283 -27 -163 -30 -207 -30 -398 l0 -214 -76 -152 c-42 -83 -107 -198
-145 -255 l-69 -103 1003 0 1004 0 32 118 c18 64 57 183 87 263 69 187 140
468 199 784 26 138 87 426 137 640 49 215 116 538 149 719 54 304 59 341 59
477 0 234 22 302 193 594 67 113 207 393 207 413 0 5 -49 23 -109 40 -89 26
-128 32 -205 32 -79 0 -112 5 -188 30 l-92 29 -82 -25 -81 -24 -44 20 c-40 18
-66 20 -298 20 -242 0 -256 -1 -276 -20 l-22 -20 -144 30 c-208 43 -232 51
-240 80 -23 81 1 180 55 229 25 24 26 27 26 151 l0 126 -114 107 -114 107 -74
0 c-67 0 -80 4 -157 44 -96 50 -144 100 -235 244 -59 94 -94 182 -116 294 -12
58 -11 83 4 190 9 68 28 157 42 199 l25 76 -42 94 c-23 52 -61 151 -84 221
l-43 127 51 18 c29 10 90 43 137 74 l85 56 28 105 c22 85 27 128 27 219 0 108
2 117 30 164 28 48 30 55 30 167 l0 118 46 92 46 93 -53 124 -54 125 -70 38
c-38 21 -81 38 -95 38 -14 0 -49 16 -78 35 l-52 36 0 293 0 293 51 22 c29 12
74 21 103 21 41 1 68 10 140 48 l90 47 28 100 28 100 0 327 0 328 -192 129
c-181 121 -198 135 -278 230 -107 128 -289 284 -422 362 -86 51 -129 87 -263
218 -88 87 -183 172 -212 190 -32 20 -80 68 -128 127 l-77 94 -87 0 c-82 0
-90 2 -151 38 -36 21 -101 66 -144 101 -87 68 -195 126 -363 194 -86 34 -129
59 -199 114 -51 40 -137 95 -201 126 -132 67 -291 165 -425 265 l-98 72 -132
0 -133 -1 -280 -138z m419 -506 c14 -22 24 -25 75 -25 52 0 61 3 75 25 22 33
65 33 96 0 l24 -26 25 27 25 27 21 -27 c15 -18 30 -26 53 -26 23 0 36 -7 48
-25 11 -17 25 -25 45 -25 40 0 106 -64 89 -85 -19 -23 -58 -18 -82 10 -20 23
-29 25 -98 25 -69 0 -79 3 -100 25 l-23 25 -247 0 -247 0 -23 25 c-19 21 -33
25 -76 25 -45 0 -55 -4 -73 -27 l-21 -28 -23 28 c-20 24 -30 27 -80 27 -44 0
-59 4 -64 16 -3 9 0 20 8 25 8 5 136 9 285 9 l272 0 16 -25z m-696 -37 c16
-16 16 -110 0 -126 -7 -7 -33 -12 -59 -12 -85 0 -103 49 -41 112 38 39 77 49
100 26z m-393 -732 c18 -13 17 -14 -8 -36 -17 -15 -27 -34 -27 -50 0 -33 -17
-50 -50 -50 -38 0 -50 18 -50 77 0 39 4 55 18 62 25 15 95 13 117 -3z m1033
-248 c7 -7 12 -33 12 -58 0 -40 -5 -52 -35 -83 -32 -33 -42 -37 -86 -37 -40 0
-54 -5 -73 -25 -13 -14 -27 -25 -31 -25 -4 0 -16 11 -27 25 -14 18 -29 25 -54
25 -27 0 -34 4 -34 19 0 25 19 31 101 31 65 0 72 2 103 33 45 44 37 57 -34 57
-61 0 -90 16 -68 38 16 16 210 16 226 0z m297 -305 c5 -13 15 -23 21 -23 20 0
35 -25 22 -38 -14 -14 -38 2 -38 24 0 22 -24 16 -50 -11 -19 -20 -33 -25 -75
-25 -59 0 -75 -12 -75 -56 0 -33 -13 -44 -54 -44 -12 0 -32 -11 -44 -25 -19
-22 -30 -25 -90 -25 -44 0 -75 5 -88 15 -18 14 -18 15 10 38 l29 23 -52 49
-51 49 37 38 37 38 226 -2 c223 -3 225 -3 235 -25z m-207 -325 c7 -7 12 -36
12 -66 0 -45 -4 -59 -25 -78 -14 -13 -25 -34 -25 -49 0 -18 -17 -43 -60 -85
-57 -56 -64 -60 -108 -60 -53 0 -72 12 -72 46 0 41 11 54 44 54 50 0 56 13 56
125 0 65 4 105 12 113 7 7 41 12 83 12 42 0 76 -5 83 -12z m1230 -2550 c7 -7
12 -23 12 -37 0 -19 19 -45 68 -92 37 -37 80 -80 96 -97 l28 -31 -71 -69 c-51
-50 -71 -77 -71 -95 0 -36 -74 -107 -111 -107 -18 0 -32 -7 -39 -20 -9 -17
-21 -20 -75 -20 -54 0 -66 3 -75 20 -10 18 -21 20 -115 20 -99 0 -104 1 -123
25 -19 24 -25 25 -115 25 -53 0 -102 3 -111 6 -22 8 -20 27 4 49 11 10 20 30
20 45 0 46 13 50 176 50 151 0 152 0 168 25 12 18 25 25 47 25 39 0 99 58 99
96 0 20 21 47 83 109 45 46 84 84 88 84 3 1 10 -4 17 -11z m-1443 -122 c31
-29 35 -39 35 -85 0 -49 2 -53 61 -112 l61 -61 24 28 24 29 21 -27 c14 -20 30
-28 50 -28 20 0 40 -11 64 -35 46 -45 46 -77 0 -121 -40 -40 -46 -41 -63 -14
-17 28 -26 25 -67 -17 -35 -36 -35 -36 -35 -129 l0 -92 38 -41 c55 -59 73 -56
162 34 73 73 76 75 124 75 45 0 53 -4 88 -41 21 -22 38 -49 38 -59 0 -11 -29
-48 -66 -84 -64 -65 -66 -66 -119 -66 -44 0 -56 -4 -65 -20 -10 -18 -21 -20
-136 -20 -120 0 -126 -1 -150 -25 -15 -15 -36 -25 -54 -25 -20 0 -35 -8 -46
-25 -15 -23 -22 -25 -99 -25 -69 0 -85 3 -100 20 -10 11 -22 20 -26 20 -5 0
-28 -20 -51 -45 -54 -57 -84 -59 -135 -9 l-36 36 27 24 c16 15 26 36 26 52 0
19 14 41 50 75 37 36 50 56 50 77 0 19 7 33 20 40 14 8 20 21 20 46 0 46 -55
104 -99 104 -50 0 -43 14 26 49 81 43 98 66 89 129 -6 46 -5 48 39 90 34 32
45 50 45 72 0 20 8 35 25 46 22 14 25 24 25 72 0 49 4 59 33 88 17 18 36 33
40 33 4 1 24 -14 42 -33z m610 -1306 c0 -11 -15 -16 -57 -20 -52 -5 -60 -9
-101 -53 -43 -45 -47 -47 -101 -47 -73 0 -82 18 -31 65 24 23 46 35 65 35 19
0 33 7 40 20 10 19 19 20 98 18 69 -2 87 -6 87 -18z m743 -165 c2 -22 -4 -37
-23 -55 -14 -13 -25 -35 -25 -48 0 -15 -15 -40 -37 -63 -34 -35 -43 -39 -89
-39 -57 0 -74 -12 -74 -52 0 -34 -24 -48 -84 -48 -35 0 -49 -5 -58 -20 -11
-17 -24 -20 -91 -20 l-78 0 -49 -50 c-47 -48 -52 -50 -103 -50 -47 0 -57 -3
-71 -25 -11 -17 -26 -25 -46 -25 -20 0 -38 -9 -52 -25 -21 -25 -24 -25 -175
-25 -135 0 -154 -2 -160 -17 -4 -11 1 -22 15 -31 14 -9 22 -25 22 -42 0 -32
65 -104 86 -96 8 3 14 18 14 33 0 18 13 40 37 65 45 46 85 51 115 13 16 -21
28 -25 73 -25 45 0 55 4 69 25 15 23 22 25 94 25 71 0 81 2 102 25 22 23 30
25 123 25 l100 0 70 72 c54 55 79 73 106 78 32 5 36 9 39 40 4 44 12 51 59 59
35 6 38 9 43 46 5 40 5 40 52 43 39 3 47 6 50 25 4 26 31 30 36 5 2 -9 -5 -19
-17 -23 -16 -5 -21 -15 -21 -42 0 -29 -8 -43 -50 -82 -39 -37 -50 -54 -50 -78
0 -22 -7 -35 -25 -47 -17 -11 -25 -26 -25 -44 0 -21 -18 -45 -75 -102 -53 -54
-75 -82 -75 -101 0 -32 -17 -49 -50 -49 -17 0 -39 -14 -68 -45 -32 -34 -50
-45 -72 -45 -20 0 -35 -8 -46 -25 -12 -18 -25 -25 -50 -25 -25 0 -38 -7 -50
-25 -12 -18 -25 -25 -50 -25 -25 0 -38 -7 -50 -25 l-16 -25 -204 0 -204 0 -16
25 c-11 16 -26 25 -43 25 -20 0 -36 12 -64 49 -20 26 -37 53 -37 58 0 6 -22
34 -50 62 -46 48 -50 55 -50 101 0 41 -5 54 -25 72 l-25 22 25 26 c23 24 25
33 27 155 l3 130 40 6 c24 4 45 15 53 28 12 17 24 21 68 21 45 0 58 4 76 25
21 24 26 25 150 25 125 0 128 0 144 25 15 23 22 25 99 25 77 0 84 2 99 25 14
21 24 25 69 25 44 0 58 -4 77 -25 l24 -25 49 50 49 50 154 0 c145 0 154 1 164
21 16 29 44 20 48 -16z"/>
</g>
</svg>
